<svg xmlns="http://www.w3.org/2000/svg" width="24" height="24" fill="black" viewBox="0 0 24 24">
<path d="M20 3.5A10.5 10.5 0 003.3 17.3L2 22l4.8-1.3A10.5 10.5 0 1020 3.5zM12 20a8 8 0 01-4.1-1.1l-.3-.2-2.9.8.8-2.8-.2-.3A8 8 0 1112 20zm4.3-5.6c-.2-.1-1.2-.6-1.3-.7s-.3-.1-.5.1-.6.7-.7.8-.3.2-.5.1a6.5 6.5 0 01-1.9-1.2 6.3 6.3 0 01-1.2-1.8c-.1-.2 0-.4.1-.5.1-.1.2-.3.3-.4.1-.1.1-.2.2-.3.1-.1.1-.2 0-.3s-.5-1.3-.7-1.7c-.2-.4-.4-.3-.5-.3h-.4c-.1 0-.3 0-.5.2s-.7.7-.7 1.8 1 2.1 1.1 2.2c.1.1 2 3.1 5 4.3.7.3 1.2.5 1.6.6.7.2 1.3.2 1.8.1.6-.1 1.2-.5 1.4-.9.2-.4.2-.9.1-1 0-.1-.2-.2-.4-.3z"></path>
</svg>
